# xmcd
#
# Track frame offsets: 
#        150
#        17289
#        36024
#        60782
#        78472
#        105951
#        128181
#        143617
#        159403
#        179510
#        194666
#
# Disc length: 3119 seconds
#
# Revision: 1
# Processed by: cddbd v1.5.2PL0 Copyright (c) Steve Scherf et al.
# Submitted via: ExactAudioCopyFreeDBPlugin 1.0
#
DISCID=7f0c2d0b
DTITLE=Kool and The Gang - 1976 - Open Sesame
DYEAR=1976
DGENRE=Funk
TTITLE0=Open Sesame [Part 1]
TTITLE1=Gift Of Love
TTITLE2=Little Children
TTITLE3=All Night Long
TTITLE4=Whisper Softly
TTITLE5=Super Band
TTITLE6=L-O-V-E
TTITLE7=Sunshine
TTITLE8=Open Sesame [Groove With The Genie Part 2]
TTITLE9=Super Band [Single Version]
TTITLE10=Open Sesame Groove With The Genie [Promotional  12" Special D
TTITLE10=isco Version]
EXTD=
EXTT0=
EXTT1=
EXTT2=
EXTT3=
EXTT4=
EXTT5=
EXTT6=
EXTT7=
EXTT8=
EXTT9=
EXTT10=
PLAYORDER=
